<?xml version="1.0" encoding="UTF-8" standalone="no"?>
<svg
   data-name="Layer 1"
   width="538.0218"
   height="520.24984"
   viewBox="0 0 538.0218 520.24984"
   version="1.1"
   id="svg64"
   sodipodi:docname="about.svg"
   inkscape:version="1.2.1 (9c6d41e410, 2022-07-14)"
   xmlns:inkscape="http://www.inkscape.org/namespaces/inkscape"
   xmlns:sodipodi="http://sodipodi.sourceforge.net/DTD/sodipodi-0.dtd"
   xmlns="http://www.w3.org/2000/svg"
   xmlns:svg="http://www.w3.org/2000/svg">
  <defs
     id="defs68" />
  <sodipodi:namedview
     id="namedview66"
     pagecolor="#ffffff"
     bordercolor="#000000"
     borderopacity="0.25"
     inkscape:showpageshadow="2"
     inkscape:pageopacity="0.0"
     inkscape:pagecheckerboard="0"
     inkscape:deskcolor="#d1d1d1"
     showgrid="false"
     inkscape:zoom="0.45362822"
     inkscape:cx="188.48034"
     inkscape:cy="429.86743"
     inkscape:window-width="1366"
     inkscape:window-height="717"
     inkscape:window-x="0"
     inkscape:window-y="0"
     inkscape:window-maximized="1"
     inkscape:current-layer="svg64" />
  <path
     d="m 47.182517,497.71332 a 2.80741,2.80741 0 0 0 2.03464,-4.86593 l -0.19237,-0.76476 q 0.038,-0.0919 0.07644,-0.18358 a 7.53909,7.53909 0 0 1 13.90673,0.0517 c 2.27452,5.4781 5.17038,10.96553 5.88341,16.75771 a 22.30362,22.30362 0 0 1 -0.39153,7.67061 89.41943,89.41943 0 0 0 8.13413,-37.13874 86.307,86.307 0 0 0 -0.53535,-9.6283 q -0.44349,-3.93128 -1.23055,-7.80653 a 90.45559,90.45559 0 0 0 -17.93812,-38.3373 24.07278,24.07278 0 0 1 -10.01181,-10.38735 18.3625,18.3625 0 0 1 -1.67,-5.01791 c 0.48738,0.0639 1.83778,-7.35909 1.47017,-7.81452 0.67924,-1.03071 1.895,-1.54307 2.63681,-2.54885 3.68943,-5.0021 8.77253,-4.12872 11.42612,2.66876 5.6687,2.861 5.72357,7.60577 2.24528,12.16916 -2.2129,2.90325 -2.51695,6.83168 -4.45862,9.93984 0.19981,0.25572 0.40756,0.50344 0.6073,0.75916 a 91.04046,91.04046 0 0 1 9.50223,15.05378 37.84589,37.84589 0 0 1 2.25945,-17.5787 c 2.16269,-5.21725 6.21632,-9.61123 9.786,-14.12153 4.2878,-5.41757 13.08033,-3.05324 13.83575,3.81439 q 0.011,0.0997 0.02142,0.19941 -0.79533,0.44867 -1.55706,0.95247 a 3.808,3.808 0 0 0 1.53532,6.92992 l 0.07765,0.012 a 37.88961,37.88961 0 0 1 -0.99876,5.66515 c 4.57949,17.71009 -5.30731,24.16047 -19.42432,24.45023 -0.31163,0.15979 -0.61531,0.31958 -0.92694,0.47145 a 92.92537,92.92537 0 0 1 5.00193,23.5393 88.13663,88.13663 0 0 1 -0.06393,14.23066 l 0.024,-0.16777 a 23.28922,23.28922 0 0 1 7.95036,-13.44764 c 6.11822,-5.02589 14.762113,-6.87666 21.362593,-10.9165 a 4.37072,4.37072 0 0 1 6.69422,4.252 q -0.0133,0.0882 -0.027,0.17642 a 25.5799,25.5799 0 0 0 -2.86849,1.38225 q -0.79532,0.44877 -1.55706,0.95247 a 3.8081,3.8081 0 0 0 1.53533,6.93 l 0.0777,0.0119 c 0.0559,0.008 0.10387,0.016 0.15972,0.024 a 37.92271,37.92271 0 0 1 -6.97545,10.92264 c -2.86344,15.46022 -15.162003,16.927 -28.317533,12.42488 h -0.008 a 92.89716,92.89716 0 0 1 -6.24043,18.21781 h -22.29278 c -0.08,-0.24769 -0.15184,-0.50341 -0.22379,-0.75113 a 25.329,25.329 0 0 0 6.16856,-0.36745 c -1.654,-2.02957 -3.308,-4.07513 -4.962,-6.10463 a 1.384,1.384 0 0 1 -0.10388,-0.11987 c -0.839,-1.03867 -1.68595,-2.06945 -2.52491,-3.10816 l -4.5e-4,-0.001 a 37.10118,37.10118 0 0 1 1.08711,-9.45127 z"
     fill="#f2f2f2"
     id="path2"
     style="fill:#00eef8;fill-opacity:1" />
  <path
     d="m 84.328257,299.47821 c -5.90814,-21.45223 -16.9292,-39.72273 -34.72329,-53.77843 a 4.89248,4.89248 0 0 0 -6.75634,-1.45469 l -40.6146495,26.2238 a 4.89245,4.89245 0 0 0 -1.45468002,6.75632 L 35.502587,331.00364 a 4.89246,4.89246 0 0 0 6.75632,1.45471 l 40.61465,-26.22379 a 4.89247,4.89247 0 0 0 1.4547,-6.75635 z"
     fill="#f2f2f2"
     id="path4"
     style="fill:#2f2e41;fill-opacity:1" />
  <path
     d="m 70.724977,285.24641 c -1.52248,-11.3345 -10.89894,-22.92117 -22.32328,-34.57366 a 4.58185,4.58185 0 0 0 -6.32752,-1.36236 L 7.1693075,271.84753 a 4.58206,4.58206 0 0 0 -1.36257,6.32764 l 30.8989995,47.85549 a 4.58205,4.58205 0 0 0 6.32771,1.36224 l 21.62285,-13.96129 a 20.40975,20.40975 0 0 0 6.06868,-28.1852 z"
     fill="#ffffff"
     id="path6"
     style="fill:#00eef8;fill-opacity:1" />
  <path
     d="m 67.610367,331.46062 c 5.15377,-21.64585 4.29431,-42.9657 -4.53083,-63.85372 a 4.89248,4.89248 0 0 0 -5.22058,-4.52878 l -48.2237395,3.42179 a 4.89246,4.89246 0 0 0 -4.52876,5.22056 l 4.53084,63.85372 a 4.89247,4.89247 0 0 0 5.2205395,4.5288 l 48.22374,-3.42179 a 4.89248,4.89248 0 0 0 4.52879,-5.22058 z"
     fill="#f2f2f2"
     id="path8"
     style="fill:#2f2e41;fill-opacity:1" />
  <path
     d="m 62.542807,312.43661 c 4.12451,-10.66664 1.48736,-25.33683 -2.91283,-41.051 a 4.58187,4.58187 0 0 0 -4.88923,-4.24135 l -41.44424,2.94074 a 4.58205,4.58205 0 0 0 -4.2415795,4.88924 l 4.0318295,56.82112 a 4.582,4.582 0 0 0 4.88945,4.24133 l 25.67385,-1.82172 a 20.40974,20.40974 0 0 0 18.89275,-21.77836 z"
     fill="#ffffff"
     id="path10"
     style="fill:#00eef8;fill-opacity:1" />
  <path
     d="m 63.452137,197.83392 20.65947,-76.46688 a 12.785,12.785 0 0 1 15.50843,-9.01312 v 0 a 12.785,12.785 0 0 1 9.022533,16.21244 l -23.895233,78.77245 -12.50192,48.47714 a 11.15676,11.15676 0 1 1 -14.30444,0.63831 z"
     fill="#ffb6b6"
     id="path12" />
  <path
     d="m 212.44578,211.06238 -21.18655,-76.32252 a 12.785,12.785 0 0 1 8.75169,-15.65748 v 0 a 12.785,12.785 0 0 1 16.02429,9.35261 l 19.57713,79.95509 13.9438,48.08223 a 11.15677,11.15677 0 1 1 -11.983,7.83792 z"
     fill="#ffb6b6"
     id="path14" />
  <polygon
     points="433.315,504.238 426.893,452.165 446.818,452.166 446.816,504.239 "
     fill="#ffb6b6"
     id="polygon16"
     transform="matrix(-1,0,0,1,538.02104,0)" />
  <path
     d="m 90.730137,518.32283 41.515503,-0.002 v -0.525 a 16.15988,16.15988 0 0 0 -16.159,-16.15874 h -0.001 l -7.58332,-5.75307 -14.148813,5.754 -3.62405,9e-5 z"
     fill="#2f2e41"
     id="path18" />
  <polygon
     points="338.519,502.004 341.337,449.611 360.953,453.11 351.81,504.375 "
     fill="#ffb6b6"
     id="polygon20"
     transform="matrix(-1,0,0,1,538.02104,0)" />
  <path
     d="m 188.21549,518.32283 40.87065,-7.28877 -0.0922,-0.51682 a 16.15988,16.15988 0 0 0 -18.74445,-13.07148 l -0.001,1.8e-4 -8.47541,-4.33265 -12.91914,8.14819 -3.56777,0.63621 z"
     fill="#2f2e41"
     id="path22" />
  <path
     d="m 184.89524,264.8137 c 0,0 12.5819,17.82122 12.06905,23.80173 -0.51285,5.98051 -4.95628,1.20962 -0.51287,5.98048 4.44341,4.77086 7.03249,1.57014 4.84927,7.46428 -2.18322,5.89414 -3.07191,2.07745 -2.18322,5.89414 0.88869,3.81669 -0.88869,149.80512 -0.88869,149.80512 h -23.13691 c 0,0 -13.04781,-84.65063 -11.39607,-88.60269 1.65174,-3.95206 1.61387,-2.23155 -0.14456,-6.43141 -1.75843,-4.19986 -3.41329,-9.19612 -3.41329,-9.19612 l -18.288,-51.46886 -14.107,72.46739 -16.60543,86.11216 H 88.965397 c 0,0 -3.79668,-126.62986 -5.47535,-128.20763 -1.67867,-1.57777 0.32961,-5.12377 2.43586,-7.16746 2.10625,-2.04369 1.6864,-4.11877 1.00764,-8.32918 -0.67876,-4.21041 -3.54219,-6.55872 -3.4435,-9.20125 0.09869,-2.64253 -6.12208,-44.62614 3.65343,-51.30535 9.77551,-6.67921 97.751763,8.38465 97.751763,8.38465 z"
     fill="#2f2e41"
     id="path24" />
  <path
     d="m 107.53361,87.29942 25.88066,-6.70645 12.08087,-16.66233 28.6905,3.527 6.10734,22.72759 20.42534,11.85609 c -36.61419,0.21884 -16.89656,106.2934 -22.27807,113.13715 -4.37946,5.56948 21.85839,18.81883 13.63532,27.27064 -8.22307,8.45181 -5.18276,5.06989 -3.27462,14.27147 1.90814,9.20158 15.81778,18.93956 0,18.84293 -15.81778,-0.0966 -111.265003,-1.46016 -108.538003,-12.36842 2.727,-10.90826 2.68412,-8.13825 6.79619,-14.97738 4.11207,-6.83913 6.87956,-3.01732 5.49582,-13.10942 -1.38374,-10.0921 3.1106,-17.89788 -0.02026,-22.3639 -4.80557,-6.85486 0.03728,-56.33733 4.56872,-55.01654 z"
     fill="#00eef8"
     id="path26" />
  <path
     d="m 114.923,87.65315 c 0,0 -18.931503,-8.04275 -25.749163,6.9561 -2.17752,4.79055 -4.011,16.82332 -5.77769,14.155 -1.76669,-2.66832 -0.06211,3.18135 -1.15575,3.18859 -0.97613,0.006 -2.47689,-1.57243 -1.34256,3.86689 a 10.77325,10.77325 0 0 1 -3.14761,9.9166 l 32.903723,19.70629 z"
     fill="#00eef8"
     id="path28" />
  <path
     d="m 186.05267,101.28847 c 0,0 18.93151,-8.04275 25.74917,6.95611 1.9174,4.21827 1.44033,13.5912 5.17412,12.53891 3.73379,-1.05229 1.08315,2.9125 1.57576,4.28986 0.54906,1.53518 -1.848,5.87959 1.51854,4.35932 3.36654,-1.52027 3.15519,9.939 3.15519,9.939 l -32.90373,19.70625 z"
     fill="#00eef8"
     id="path30" />
  <path
     d="m 177.07672,78.82524 5.45413,9.54473 c 0,0 14.99885,8.18119 14.99885,9.54472 0,1.36353 -2.72706,12.49726 0,21.24749 2.72706,8.75023 -5.20554,25.20618 -6.81766,38.74793 -6.81766,57.26836 13.4564,78.07668 17.72592,114.53672 l -43.268,12.63683 c 0,0 -7.1827,-95.8123 -7.1827,-117.62882 0,-21.81652 19.08946,-88.6296 19.08946,-88.6296 z"
     fill="#2f2e41"
     id="path32" />
  <path
     d="m 137.53428,74.73464 -11.14636,6.33981 c 0,0 -14.58658,3.21609 -14.76075,4.56845 -0.17417,1.35236 -0.226,15.72546 -4.04844,24.05567 -3.82244,8.33021 -2.76922,12.7597 -13.063593,37.38552 -5.25977,12.58224 -17.33492,113.25015 -17.33492,113.25015 l 41.299423,18.06009 c 0,0 19.36232,-94.11 22.149,-115.74779 2.78668,-21.63779 -3.09436,-87.9119 -3.09436,-87.9119 z"
     fill="#2f2e41"
     id="path34" />
  <circle
     cx="-165.40498"
     cy="33.540691"
     r="28.19388"
     fill="#ffb6b6"
     id="circle36"
     transform="scale(-1,1)" />
  <path
     d="m 146.85025,55.44624 c 6.6646,-5.20939 -2.44572,-28.12577 8.56,-23.23433 0,0 13.45145,-8.56 16.154,-2.93489 3.1293,6.51338 14.25851,3.55856 21.09433,1.25958 a 16.60841,16.60841 0 0 1 -1.13726,-3.90093 31.22909,31.22909 0 0 0 3.9987,2.67807 8.11676,8.11676 0 0 0 2.44572,-2.00551 4.96705,4.96705 0 0 0 0.62367,-5.63736 c -1.13725,-1.74868 -3.48512,-2.28674 -4.86695,-3.8398 a 1.672,1.672 0 0 1 -0.2295,-1.5362 4.39444,4.39444 0 0 0 -3.93738,-5.50333 1.58022,1.58022 0 0 1 -0.749,-0.16313 17.13328,17.13328 0 0 1 -3.19165,-2.51909 c 1.60195,0.07337 -0.357,-9.73249 -16.23961,-7.87522 -3.9987,-0.14673 -6.08693,4.26336 -10.0245,4.9604 -9.54473,-5.45413 -18.06454,2.41348 -22.21006,9.934 -4.14553,7.52064 -8.6334,31.75772 9.70949,40.31774 z"
     fill="#2f2e41"
     id="path38" />
  <path
     d="m 267.15105,15 h 252.73 a 18.15513,18.15513 0 0 1 18.14,18.13 v 227.73005 a 18.16363,18.16363 0 0 1 -18.14,18.14 h -252.73 a 18.15509,18.15509 0 0 1 -18.13,-18.13995 V 33.13 a 18.14658,18.14658 0 0 1 18.13,-18.13 z"
     fill="#ffffff"
     id="path40"
     style="fill:#00eef8;fill-opacity:1" />
  <path
     d="m 382.62694,67.26772 h 27 a 5,5 0 1 0 0,-10 h -27 a 5,5 0 0 0 0,10 z"
     fill="#00eef8"
     id="path42"
     style="fill:#2f2e41;fill-opacity:1" />
  <path
     d="m 24.626937,297 h 27 a 5,5 0 0 0 0,-10 h -27 a 5,5 0 0 0 0,10 z"
     fill="#00eef8"
     id="path44"
     style="fill:#2f2e41;fill-opacity:1" />
  <path
     d="m 312.62694,172 h 167 a 5,5 0 0 0 0,-10 h -167 a 5,5 0 0 0 0,10 z"
     fill="#e6e6e6"
     id="path46"
     style="fill:#2f2e41;fill-opacity:1" />
  <path
     d="m 312.62694,205 h 167 a 5,5 0 0 0 0,-10 h -167 a 5,5 0 0 0 0,10 z"
     fill="#e6e6e6"
     id="path48"
     style="fill:#2f2e41;fill-opacity:1" />
  <path
     d="m 312.62694,238 h 167 a 5,5 0 0 0 0,-10 h -167 a 5,5 0 0 0 0,10 z"
     fill="#e6e6e6"
     id="path50"
     style="fill:#2f2e41;fill-opacity:1" />
  <path
     d="m 346.76103,82.26992 h 98.73 a 18.15514,18.15514 0 0 1 18.14,18.13 v 29.73 a 18.16365,18.16365 0 0 1 -18.14,18.14 h -98.73 a 18.15509,18.15509 0 0 1 -18.13,-18.14 v -29.73 a 18.14657,18.14657 0 0 1 18.13,-18.13 z m -16.13,47.86 a 16.14,16.14 0 0 0 16.13995,16.14 h 70.87283 a 43.98722,43.98722 0 0 0 43.98722,-43.98722 v -1.88278 a 16.15571,16.15571 0 0 0 -16.14,-16.13 h -98.73 a 16.14718,16.14718 0 0 0 -16.13,16.13 z"
     fill="#e6e6e6"
     id="path52"
     style="fill:#2f2e41;fill-opacity:1" />
  <circle
     cx="-395.02103"
     cy="109"
     r="17"
     fill="#e6e6e6"
     id="circle54"
     transform="scale(-1,1)"
     style="fill:#2f2e41;fill-opacity:1" />
  <polygon
     points="106,148 130,142 132.99,132.13 156,132 162.89,141.76 180.29,146.27 181.87,146.68 182.11,148.27 "
     fill="#e6e6e6"
     id="polygon56"
     transform="matrix(-1,0,0,1,538.02104,0)"
     style="fill:#2f2e41;fill-opacity:1" />
  <path
     d="m 404.68261,119.85409 c -3.648,-2.8515 1.33872,-15.39537 -4.68555,-12.71791 0,0 -7.363,-4.68555 -8.84232,-1.60649 -1.7129,3.56527 -7.80476,1.94787 -11.54653,0.68946 a 9.09074,9.09074 0 0 0 0.62251,-2.13527 17.09573,17.09573 0 0 1 -2.18879,1.46591 4.44311,4.44311 0 0 1 -1.33873,-1.09777 2.71885,2.71885 0 0 1 -0.34138,-3.08576 c 0.6225,-0.95719 1.90767,-1.25171 2.66405,-2.10181 a 0.91524,0.91524 0 0 0 0.12562,-0.84088 2.40541,2.40541 0 0 1 2.15523,-3.01239 0.86493,0.86493 0 0 0 0.41,-0.0893 9.37792,9.37792 0 0 0 1.747,-1.37889 c -0.87687,0.04017 0.19541,-5.32733 8.88917,-4.3107 2.1888,-0.08032 3.33184,2.33366 5.48718,2.7152 5.22455,-2.98546 9.8881,1.32108 12.15725,5.43765 2.26915,4.11657 4.72575,17.3834 -5.31471,22.06895 z"
     fill="#e6e6e6"
     id="path58"
     style="fill:#2f2e41;fill-opacity:1" />
  <path
     d="m 267.15105,15 h 252.73 a 18.15513,18.15513 0 0 1 18.14,18.13 v 227.73005 a 18.16363,18.16363 0 0 1 -18.14,18.14 h -252.73 a 18.15509,18.15509 0 0 1 -18.13,-18.13995 V 33.13 a 18.14658,18.14658 0 0 1 18.13,-18.13 z m -16.13,245.86005 a 16.14,16.14 0 0 0 16.14,16.14 h 138.6592 A 130.20079,130.20079 0 0 0 536.02104,146.79921 V 33.13 A 16.15571,16.15571 0 0 0 519.88104,17 h -252.73 a 16.14719,16.14719 0 0 0 -16.13,16.13 z"
     fill="#e6e6e6"
     id="path60"
     style="fill:#2f2e41;fill-opacity:1" />
  <path
     d="m 3.1139275,519.94253 315.3575025,0.30731 a 1.19069,1.19069 0 0 0 0,-2.38135 L 3.1139275,517.56118 a 1.19069,1.19069 0 0 0 0,2.38135 z"
     fill="#cacaca"
     id="path62"
     style="fill:#00eef8;fill-opacity:1" />
</svg>
