<?xml version="1.0" encoding="UTF-8" standalone="no"?>
<svg
   data-name="Layer 1"
   width="1354.0986"
   height="816.36499"
   viewBox="0 0 1354.0986 816.36501"
   version="1.1"
   id="svg4022"
   sodipodi:docname="undraw_progressive_app_m-9-ms.svg"
   inkscape:version="1.2.1 (9c6d41e410, 2022-07-14)"
   xmlns:inkscape="http://www.inkscape.org/namespaces/inkscape"
   xmlns:sodipodi="http://sodipodi.sourceforge.net/DTD/sodipodi-0.dtd"
   xmlns="http://www.w3.org/2000/svg"
   xmlns:svg="http://www.w3.org/2000/svg"
   xmlns:rdf="http://www.w3.org/1999/02/22-rdf-syntax-ns#"
   xmlns:cc="http://creativecommons.org/ns#"
   xmlns:dc="http://purl.org/dc/elements/1.1/">
  <defs
     id="defs4026" />
  <sodipodi:namedview
     id="namedview4024"
     pagecolor="#ffffff"
     bordercolor="#000000"
     borderopacity="0.25"
     inkscape:showpageshadow="2"
     inkscape:pageopacity="0"
     inkscape:pagecheckerboard="0"
     inkscape:deskcolor="#1f1f1f"
     showgrid="false"
     inkscape:zoom="0.25495215"
     inkscape:cx="88.251854"
     inkscape:cy="639.33565"
     inkscape:window-width="1366"
     inkscape:window-height="717"
     inkscape:window-x="0"
     inkscape:window-y="0"
     inkscape:window-maximized="1"
     inkscape:current-layer="svg4022" />
  <title
     id="title3938">progressive_app</title>
  <metadata
     id="metadata4341">
    <rdf:RDF>
      <cc:Work
         rdf:about="">
        <dc:title>progressive_app</dc:title>
      </cc:Work>
    </rdf:RDF>
  </metadata>
  <g
     id="g8313"
     transform="translate(521.86091,-1507.7034)">
    <path
       id="circle3942"
       style="fill:#00eef8"
       d="m 21.960342,2195.7458 a 59.24334,59.24334 0 0 1 -59.243339,59.2434 59.24334,59.24334 0 0 1 -59.24334,-59.2434 59.24334,59.24334 0 0 1 59.24334,-59.2433 59.24334,59.24334 0 0 1 59.243339,59.2433 z" />
    <path
       id="rect3944"
       style="fill:#3f3d56"
       d="M -2.7617652,2117.0684 H 730.23775 v 2 H -2.7617652 Z" />
    <path
       id="rect3976"
       style="fill:#3f3d56"
       d="m 279.23825,1702.0684 h 254.99951 v 2 H 279.23825 Z" />
    <path
       id="rect3978"
       style="fill:#3f3d56"
       d="M 99.238235,2230.0684 H 832.23775 v 2 H 99.238235 Z" />
    <path
       id="rect3980"
       style="fill:#3f3d56"
       d="m -114.26152,2322.0684 h 254.99951 v 2 h -254.99951 z" />
    <path
       id="rect3982"
       style="fill:#00eef8"
       d="m 164.06688,2219.5251 h 28 v 28 h -28 z" />
    <path
       d="m 209.06688,2231.5251 h -34 v -34 h 34 z m -32.52174,-1.4782 h 31.04348 v -31.0435 h -31.04348 z"
       fill="#3f3d56"
       id="path3984" />
    <path
       id="rect3986"
       style="fill:#00eef8"
       d="m 489.06689,1691.5251 h 28 v 28 h -28 z" />
    <path
       d="m 534.06688,1703.5251 h -34 v -34 h 34 z m -32.52174,-1.4782 h 31.04348 v -31.0435 h -31.04348 z"
       fill="#3f3d56"
       id="path3988" />
    <path
       d="m 816.06688,2231.5251 h -34 v -34 h 34 z m -32.52174,-1.4782 h 31.04348 v -31.0435 h -31.04348 z"
       fill="#3f3d56"
       id="path3992" />
    <path
       d="m 13.23825,2324.0684 a 87,87 0 1 1 87,-87 87.09858,87.09858 0 0 1 -87,87 z m 0,-172 a 85,85 0 1 0 85,85 85.09629,85.09629 0 0 0 -85,-85 z"
       fill="#3f3d56"
       id="path4018" />
    <path
       id="rect3646"
       style="opacity:1;fill:none;stroke:#00eef8;stroke-width:1.1;stroke-linecap:round;stroke-linejoin:round"
       d="m 110.48198,1598.5085 h 183.79289 v 63.5484 H 110.48198 Z" />
    <g
       aria-label="HTML"
       transform="scale(1.0053928,0.99463613)"
       id="text3754"
       style="font-weight:bold;font-size:51.4877px;font-family:'Liberation Serif';-inkscape-font-specification:'Liberation Serif, Bold';text-align:center;text-anchor:middle;opacity:1;fill:#00eef8;stroke-width:1.1;stroke-linecap:round;stroke-linejoin:round">
      <path
         d="m 124.14939,1655.9313 v -1.8604 l 4.32417,-0.6537 v -28.6853 l -4.32417,-0.6788 v -1.8352 h 16.56758 v 1.8352 l -4.32416,0.6788 v 12.4697 h 13.77698 v -12.4697 l -4.32416,-0.6788 v -1.8352 h 16.61785 v 1.8352 l -4.3493,0.6788 v 28.6853 l 4.3493,0.6537 v 1.8604 h -16.61785 v -1.8604 l 4.32416,-0.6537 v -13.4501 h -13.77698 v 13.4501 l 4.32416,0.6537 v 1.8604 z"
         id="path8423" />
      <path
         d="m 171.11181,1655.9313 v -1.8353 l 5.35492,-0.6788 v -28.5344 h -1.28216 q -5.75717,0 -8.09524,0.5028 l -0.67879,6.26 h -2.28779 v -9.4277 h 32.75805 v 9.4277 h -2.31293 l -0.67879,-6.26 q -2.08666,-0.4525 -8.24608,-0.4525 h -1.23188 v 28.4841 l 5.35492,0.6788 v 1.8353 z"
         id="path8425" />
      <path
         d="m 219.83406,1655.9313 h -1.38273 l -12.44454,-28.4842 v 25.9701 l 4.52529,0.6788 v 1.8353 h -11.99201 v -1.8353 l 4.32416,-0.6788 v -28.7104 l -4.32416,-0.6537 v -1.8352 h 13.24903 l 9.62881,22.1739 9.82993,-22.1739 h 13.52557 v 1.8352 l -4.32416,0.6537 v 28.7104 l 4.32416,0.6788 v 1.8353 h -16.7687 v -1.8353 l 4.52529,-0.6788 v -25.9701 z"
         id="path8427" />
      <path
         d="m 264.58411,1624.0531 -5.20407,0.6537 v 28.5596 h 6.86335 q 5.35492,0 7.86897,-0.5028 l 2.06152,-7.0142 h 2.26264 l -0.95534,10.1819 h -30.34456 v -1.8353 l 4.32416,-0.6788 v -28.7104 l -4.29902,-0.6537 v -1.8352 h 17.42235 z"
         id="path8429" />
    </g>
    <path
       id="rect3806"
       style="opacity:1;fill:none;stroke:#00eef8;stroke-width:1.1;stroke-linecap:round;stroke-linejoin:round"
       d="m 401.11331,1912.5525 h 123.3583 v 63.5484 h -123.3583 z" />
    <g
       aria-label="CSS"
       transform="scale(1.0053928,0.99463613)"
       id="text3810"
       style="font-weight:bold;font-size:51.4877px;font-family:'Liberation Serif';-inkscape-font-specification:'Liberation Serif, Bold';text-align:center;text-anchor:middle;opacity:1;fill:#00eef8;stroke-width:1.1;stroke-linecap:round;stroke-linejoin:round">
      <path
         d="m 434.21427,1972.1714 q -8.47234,0 -13.22389,-4.5002 -4.75155,-4.5001 -4.75155,-12.4696 0,-8.6484 4.52529,-13.1234 4.55042,-4.5001 13.42501,-4.5001 5.85773,0 12.14285,1.6844 l 0.15085,8.0952 h -2.26265 l -0.70393,-4.8772 q -3.31854,-2.2627 -7.71813,-2.2627 -5.83259,0 -8.52262,3.6454 -2.69003,3.6202 -2.69003,11.2629 0,7.0645 2.81573,10.7602 2.81574,3.6956 8.1958,3.6956 2.84087,0 4.95267,-0.7542 2.13694,-0.7542 3.34369,-1.785 l 0.80449,-5.5309 h 2.28779 l -0.15085,8.5478 q -2.26264,0.8799 -5.88287,1.5084 -3.62023,0.6034 -6.73765,0.6034 z"
         id="path8433" />
      <path
         d="m 453.64786,1961.3358 h 2.21237 l 1.13132,5.4052 q 1.0559,1.2319 3.19284,2.0616 2.13694,0.8296 4.42472,0.8296 7.21532,0 7.21532,-5.9332 0,-1.8603 -1.38273,-3.1425 -1.35758,-1.2822 -4.29902,-2.2878 -4.32416,-1.433 -6.23484,-2.3129 -1.88553,-0.9051 -3.19284,-2.1118 -1.3073,-1.2068 -2.08666,-2.9163 -0.77935,-1.7347 -0.77935,-4.2488 0,-4.4498 3.01686,-6.7627 3.04199,-2.3381 8.87458,-2.3381 4.2236,0 9.35226,1.081 v 8.0198 h -2.2375 l -1.13132,-4.6258 q -2.56433,-1.8604 -5.98344,-1.8604 -3.09227,0 -4.75155,1.1565 -1.65927,1.1313 -1.65927,3.4945 0,1.6844 1.38273,2.8911 1.38272,1.1816 4.32416,2.1118 5.75717,1.8856 7.89411,3.2934 2.16208,1.3828 3.2934,3.4443 1.13133,2.0615 1.13133,4.8521 0,10.735 -12.64567,10.735 -2.89115,0 -5.90801,-0.5028 -2.99172,-0.4777 -5.1538,-1.2822 z"
         id="path8435" />
      <path
         d="m 482.28287,1961.3358 h 2.21237 l 1.13132,5.4052 q 1.0559,1.2319 3.19284,2.0616 2.13694,0.8296 4.42472,0.8296 7.21532,0 7.21532,-5.9332 0,-1.8603 -1.38273,-3.1425 -1.35758,-1.2822 -4.29902,-2.2878 -4.32416,-1.433 -6.23484,-2.3129 -1.88553,-0.9051 -3.19284,-2.1118 -1.3073,-1.2068 -2.08666,-2.9163 -0.77935,-1.7347 -0.77935,-4.2488 0,-4.4498 3.01685,-6.7627 3.042,-2.3381 8.87459,-2.3381 4.2236,0 9.35226,1.081 v 8.0198 h -2.2375 l -1.13132,-4.6258 q -2.56433,-1.8604 -5.98344,-1.8604 -3.09227,0 -4.75155,1.1565 -1.65927,1.1313 -1.65927,3.4945 0,1.6844 1.38273,2.8911 1.38272,1.1816 4.32416,2.1118 5.75717,1.8856 7.89411,3.2934 2.16208,1.3828 3.2934,3.4443 1.13133,2.0615 1.13133,4.8521 0,10.735 -12.64567,10.735 -2.89115,0 -5.90801,-0.5028 -2.99172,-0.4777 -5.1538,-1.2822 z"
         id="path8437" />
    </g>
    <path
       id="rect3914"
       style="opacity:1;fill:none;stroke:#00eef8;stroke-width:1.1;stroke-linecap:round;stroke-linejoin:round"
       d="M -51.732765,2253.2581 H 291.04086 v 63.5483 H -51.732765 Z" />
    <g
       aria-label="JAVASCRIPT"
       transform="scale(1.0053928,0.99463613)"
       id="text3918"
       style="font-weight:bold;font-size:51.4877px;font-family:'Liberation Serif';-inkscape-font-specification:'Liberation Serif, Bold';text-align:center;text-anchor:middle;opacity:1;fill:#00eef8;stroke-width:1.1;stroke-linecap:round;stroke-linejoin:round">
      <path
         d="m -24.175354,2282.9872 -4.324162,-0.6537 v -1.8352 h 16.064766 v 1.8352 l -3.821353,0.6537 v 20.3638 q 0,5.4555 -3.016857,8.422 -3.016858,2.9415 -8.598044,2.9415 -1.885536,0 -3.720791,-0.2263 -1.810114,-0.2011 -2.891155,-0.5279 v -7.6427 h 2.237503 l 0.754214,4.5001 q 0.477669,0.5782 1.357586,0.9051 0.879917,0.3268 1.935817,0.3268 1.734693,0 2.866014,-1.2068 1.156462,-1.2067 1.156462,-3.5699 z"
         id="path8441" />
      <path
         d="m -0.26675788,2312.3764 v 1.8353 H -10.524073 v -1.8353 l 2.5140475,-0.6788 11.9920086,-31.4759 h 7.2907389 l 11.941728,31.4759 2.564329,0.6788 v 1.8353 H 10.769912 v -1.8353 l 3.896775,-0.6788 -3.217982,-8.7237 H -1.4986414 l -3.0922789,8.7237 z m 5.35492208,-27.0763 -5.55604591,14.9083 H 10.493367 Z"
         id="path8443" />
      <path
         d="m 56.12334,2280.4983 v 1.8352 l -3.192841,0.6788 -13.022769,31.9787 h -3.343683 l -13.701561,-31.9787 -2.765453,-0.6788 v -1.8352 h 14.656899 v 1.8352 l -3.494526,0.6788 9.47796,22.0985 8.849449,-22.0985 -3.393965,-0.6788 v -1.8352 z"
         id="path8445" />
      <path
         d="m 60.824612,2312.3764 v 1.8353 H 50.567296 v -1.8353 l 2.514048,-0.6788 11.992009,-31.4759 h 7.290739 l 11.941727,31.4759 2.564329,0.6788 v 1.8353 H 71.861282 v -1.8353 l 3.896774,-0.6788 -3.217981,-8.7237 H 59.592728 l -3.092279,8.7237 z m 5.354922,-27.0763 -5.556046,14.9083 h 10.961249 z"
         id="path8447" />
      <path
         d="m 89.987569,2303.8789 h 2.212362 l 1.131321,5.4052 q 1.055901,1.2319 3.192841,2.0616 2.136941,0.8296 4.424727,0.8296 7.21532,0 7.21532,-5.9332 0,-1.8604 -1.38273,-3.1425 -1.35759,-1.2822 -4.29902,-2.2878 -4.324166,-1.433 -6.234842,-2.3129 -1.885536,-0.9051 -3.192841,-2.1118 -1.307305,-1.2068 -2.08666,-2.9163 -0.779355,-1.7347 -0.779355,-4.2488 0,-4.4498 3.016858,-6.7628 3.041998,-2.338 8.87459,-2.338 4.2236,0 9.35226,1.081 v 8.0198 h -2.23751 l -1.13132,-4.6258 q -2.56433,-1.8604 -5.98343,-1.8604 -3.09228,0 -4.751551,1.1565 -1.659272,1.1313 -1.659272,3.4945 0,1.6844 1.382726,2.8911 1.382727,1.1816 4.324167,2.1118 5.75717,1.8856 7.89411,3.2934 2.16208,1.3828 3.2934,3.4443 1.13132,2.0615 1.13132,4.8521 0,10.735 -12.64566,10.735 -2.891156,0 -5.908013,-0.5028 -2.991717,-0.4777 -5.153798,-1.2822 z"
         id="path8449" />
      <path
         d="m 136.37174,2314.7145 q -8.47234,0 -13.22389,-4.5002 -4.75155,-4.5001 -4.75155,-12.4696 0,-8.6484 4.52529,-13.1234 4.55042,-4.5001 13.42501,-4.5001 5.85773,0 12.14285,1.6844 l 0.15085,8.0952 h -2.26265 l -0.70393,-4.8772 q -3.31854,-2.2627 -7.71813,-2.2627 -5.83259,0 -8.52262,3.6454 -2.69003,3.6202 -2.69003,11.2629 0,7.0645 2.81573,10.7602 2.81574,3.6956 8.1958,3.6956 2.84087,0 4.95267,-0.7542 2.13694,-0.7542 3.34369,-1.785 l 0.80449,-5.5309 h 2.28778 l -0.15084,8.5478 q -2.26264,0.8799 -5.88287,1.5084 -3.62023,0.6034 -6.73765,0.6034 z"
         id="path8451" />
      <path
         d="m 166.21349,2299.9319 v 11.7657 l 4.32416,0.6788 v 1.8353 h -16.26589 v -1.8353 l 3.99734,-0.6788 v -28.7104 l -4.32416,-0.6537 v -1.8352 h 16.11504 q 7.44159,0 11.1121,2.2878 3.67051,2.2878 3.67051,7.1399 0,7.2404 -6.78793,9.3019 l 9.00029,12.4697 3.64537,0.6788 v 1.8353 h -10.91097 l -9.40254,-14.2798 z m 10.78527,-9.9557 q 0,-3.771 -1.55871,-5.2292 -1.55871,-1.4833 -5.70689,-1.4833 h -3.51967 v 13.9027 h 3.64537 q 3.87163,0 5.50577,-1.609 1.63413,-1.609 1.63413,-5.5812 z"
         id="path8453" />
      <path
         d="m 204.2259,2311.6976 4.32416,0.6537 v 1.8604 h -16.56758 v -1.8604 l 4.32417,-0.6537 v -28.6853 l -4.32417,-0.6788 v -1.8352 h 16.56758 v 1.8352 l -4.32416,0.6788 z"
         id="path8455" />
      <path
         d="m 232.18212,2290.4791 q 0,-4.0225 -1.50843,-5.6064 -1.48329,-1.609 -5.25436,-1.609 h -1.9861 v 14.9586 h 2.08666 q 3.49453,0 5.07838,-1.7598 1.58385,-1.7598 1.58385,-5.9834 z m -8.74889,10.5087 v 10.7098 l 5.60633,0.6788 v 1.8353 h -17.54805 v -1.8353 l 3.99733,-0.6788 v -28.7104 l -4.32416,-0.6537 v -1.8352 h 14.85802 q 7.16504,0 10.70985,2.4135 3.5448,2.3883 3.5448,7.517 0,10.559 -12.31883,10.559 z"
         id="path8457" />
      <path
         d="m 249.52904,2314.2117 v -1.8353 l 5.35492,-0.6788 v -28.5344 h -1.28216 q -5.75717,0 -8.09524,0.5028 l -0.67879,6.26 h -2.28778 v -9.4277 h 32.75804 v 9.4277 h -2.31292 l -0.6788,-6.26 q -2.08666,-0.4525 -8.24607,-0.4525 h -1.23189 v 28.4841 l 5.35493,0.6788 v 1.8353 z"
         id="path8459" />
    </g>
    <path
       id="rect3920"
       style="opacity:1;fill:none;stroke:#00eef8;stroke-width:1.1;stroke-linecap:round;stroke-linejoin:round"
       d="m -521.31091,2131.7524 h 307.1109 v 63.5484 h -307.1109 z" />
    <g
       aria-label="TAILWIND"
       transform="scale(1.0053928,0.99463613)"
       id="text3924"
       style="font-weight:bold;font-size:51.4877px;font-family:'Liberation Serif';-inkscape-font-specification:'Liberation Serif, Bold';text-align:center;text-anchor:middle;opacity:1;fill:#00eef8;stroke-width:1.1;stroke-linecap:round;stroke-linejoin:round">
      <path
         d="m -488.97134,2192.0508 v -1.8353 l 5.35492,-0.6788 v -28.5344 h -1.28216 q -5.75717,0 -8.09523,0.5028 l -0.6788,6.26 h -2.28778 v -9.4277 h 32.75804 v 9.4277 h -2.31292 l -0.67879,-6.26 q -2.08666,-0.4525 -8.24608,-0.4525 h -1.23188 v 28.4841 l 5.35492,0.6788 v 1.8353 z"
         id="path8463" />
      <path
         d="m -455.48422,2190.2155 v 1.8353 h -10.25731 v -1.8353 l 2.51404,-0.6788 11.99201,-31.4758 h 7.29074 l 11.94173,31.4758 2.56433,0.6788 v 1.8353 h -15.00887 v -1.8353 l 3.89678,-0.6788 -3.21799,-8.7237 h -12.94734 l -3.09228,8.7237 z m 5.35492,-27.0763 -5.55604,14.9083 h 10.96125 z"
         id="path8465" />
      <path
         d="m -415.08347,2189.5367 4.32416,0.6537 v 1.8604 h -16.56757 v -1.8604 l 4.32416,-0.6537 v -28.6853 l -4.32416,-0.6787 v -1.8353 h 16.56757 v 1.8353 l -4.32416,0.6787 z"
         id="path8467" />
      <path
         d="m -390.6972,2160.1727 -5.20408,0.6536 v 28.5596 h 6.86335 q 5.35492,0 7.86897,-0.5028 l 2.06152,-7.0142 h 2.26264 l -0.95534,10.1819 h -30.34456 v -1.8353 l 4.32417,-0.6788 v -28.7104 l -4.29903,-0.6536 v -1.8353 h 17.42236 z"
         id="path8469" />
      <path
         d="m -341.67327,2192.8301 h -3.09228 l -8.39692,-20.7911 -8.3215,20.7911 h -3.09227 l -11.16238,-32.0038 -2.94143,-0.6536 v -1.8353 h 15.13457 v 1.8353 l -3.94706,0.6536 7.19018,20.0872 7.89411,-19.7101 h 3.14256 l 7.91925,19.6599 5.95829,-20.037 -4.24874,-0.6536 v -1.8353 h 10.91097 v 1.8353 l -2.94144,0.6536 z"
         id="path8471" />
      <path
         d="m -313.94332,2189.5367 4.32416,0.6537 v 1.8604 h -16.56757 v -1.8604 l 4.32416,-0.6537 v -28.6853 l -4.32416,-0.6787 v -1.8353 h 16.56757 v 1.8353 l -4.32416,0.6787 z"
         id="path8473" />
      <path
         d="m -278.84722,2160.8263 -4.52528,-0.6536 v -1.8353 h 11.99201 v 1.8353 l -4.32417,0.6536 v 31.2245 h -2.94143 l -20.79118,-27.1015 v 24.5874 l 4.52529,0.6788 v 1.8353 h -11.99201 v -1.8353 l 4.32416,-0.6788 v -28.7104 l -4.32416,-0.6536 v -1.8353 h 11.53948 l 16.51729,21.5454 z"
         id="path8475" />
      <path
         d="m -244.37962,2175.2067 q 0,-7.2908 -2.66489,-10.6847 -2.66489,-3.4191 -8.67346,-3.4191 h -1.8604 v 28.0819 q 2.41349,0.2011 4.37444,0.2011 3.26827,0 5.1538,-1.4079 1.91068,-1.4078 2.7906,-4.3996 0.87991,-3.0168 0.87991,-8.3717 z m -9.40254,-16.8693 q 9.07572,0 13.39988,4.123 4.3493,4.0979 4.3493,12.5451 0,8.6735 -4.14818,12.9222 -4.14818,4.2236 -12.5451,4.2236 l -11.28807,-0.1005 h -5.78231 v -1.8353 l 4.32416,-0.6788 v -28.7104 l -4.32416,-0.6536 v -1.8353 z"
         id="path8477" />
    </g>
    <path
       id="rect3926"
       style="opacity:1;fill:none;stroke:#00eef8;stroke-width:1.1;stroke-linecap:round;stroke-linejoin:round"
       d="m 398.87964,2257.9519 h 272.19604 v 63.5484 H 398.87964 Z" />
    <g
       aria-label="REACT JS"
       transform="scale(1.0053928,0.99463613)"
       id="text3930"
       style="font-weight:bold;font-size:51.4877px;font-family:'Liberation Serif';-inkscape-font-specification:'Liberation Serif, Bold';text-align:center;text-anchor:middle;opacity:1;fill:#00eef8;stroke-width:1.1;stroke-linecap:round;stroke-linejoin:round">
      <path
         d="m 422.6214,2304.6511 v 11.7658 l 4.32416,0.6788 v 1.8352 h -16.26589 v -1.8352 l 3.99734,-0.6788 v -28.7105 l -4.32417,-0.6536 v -1.8353 h 16.11505 q 7.44158,0 11.11209,2.2878 3.67051,2.2878 3.67051,7.1399 0,7.2405 -6.78793,9.302 l 9.0003,12.4697 3.64537,0.6788 v 1.8352 h -10.91097 l -9.40254,-14.2798 z m 10.78526,-9.9556 q 0,-3.7711 -1.55871,-5.2292 -1.55871,-1.4833 -5.70688,-1.4833 h -3.51967 v 13.9027 h 3.64537 q 3.87163,0 5.50576,-1.609 1.63413,-1.609 1.63413,-5.5812 z"
         id="path8481" />
      <path
         d="m 447.53561,2317.0957 4.32417,-0.6788 v -28.7105 l -4.32417,-0.6536 v -1.8353 h 28.71043 v 8.5729 h -2.28778 l -0.8045,-5.4555 q -2.81573,-0.3519 -8.14551,-0.3519 h -5.22922 v 12.3691 h 8.82431 l 0.77935,-3.7208 h 2.2375 v 10.3579 h -2.2375 l -0.77935,-3.8214 h -8.82431 v 12.9977 h 6.36054 q 6.48624,0 8.49748,-0.4023 l 1.43301,-6.2348 h 2.28778 l -0.47767,9.4025 h -30.34456 z"
         id="path8483" />
      <path
         d="m 491.75772,2317.0957 v 1.8352 H 481.5004 v -1.8352 l 2.51405,-0.6788 11.99201,-31.4759 h 7.29074 l 11.94173,31.4759 2.56433,0.6788 v 1.8352 h -15.00887 v -1.8352 l 3.89677,-0.6788 -3.21798,-8.7238 h -12.94734 l -3.09228,8.7238 z m 5.35492,-27.0763 -5.55605,14.9083 h 10.96125 z"
         id="path8485" />
      <path
         d="m 538.66985,2319.4337 q -8.47234,0 -13.22389,-4.5001 -4.75155,-4.5002 -4.75155,-12.4697 0,-8.6483 4.52529,-13.1233 4.55042,-4.5002 13.42501,-4.5002 5.85774,0 12.14285,1.6844 l 0.15085,8.0953 h -2.26265 l -0.70393,-4.8773 q -3.31854,-2.2626 -7.71813,-2.2626 -5.83259,0 -8.52262,3.6453 -2.69003,3.6203 -2.69003,11.263 0,7.0644 2.81573,10.7601 2.81574,3.6956 8.1958,3.6956 2.84087,0 4.95267,-0.7542 2.13695,-0.7542 3.34369,-1.7849 l 0.80449,-5.5309 h 2.28779 l -0.15085,8.5477 q -2.26264,0.8799 -5.88287,1.5084 -3.62023,0.6034 -6.73765,0.6034 z"
         id="path8487" />
      <path
         d="m 563.15667,2318.9309 v -1.8352 l 5.35493,-0.6788 v -28.5345 h -1.28217 q -5.75717,0 -8.09523,0.5028 l -0.6788,6.26 h -2.28778 v -9.4277 h 32.75805 v 9.4277 h -2.31293 l -0.67879,-6.26 q -2.08666,-0.4525 -8.24608,-0.4525 h -1.23188 v 28.4842 l 5.35492,0.6788 v 1.8352 z"
         id="path8489" />
      <path
         d="m 614.24214,2287.7064 -4.32417,-0.6536 v -1.8353 h 16.06477 v 1.8353 l -3.82135,0.6536 v 20.3638 q 0,5.4555 -3.01686,8.4221 -3.01686,2.9414 -8.59804,2.9414 -1.88554,0 -3.7208,-0.2262 -1.81011,-0.2012 -2.89115,-0.528 v -7.6427 h 2.2375 l 0.75422,4.5001 q 0.47767,0.5783 1.35758,0.9051 0.87992,0.3268 1.93582,0.3268 1.73469,0 2.86601,-1.2067 1.15647,-1.2068 1.15647,-3.57 z"
         id="path8491" />
      <path
         d="m 630.13092,2308.5982 h 2.21236 l 1.13132,5.4052 q 1.0559,1.2319 3.19284,2.0615 2.13694,0.8296 4.42473,0.8296 7.21532,0 7.21532,-5.9331 0,-1.8604 -1.38273,-3.1426 -1.35759,-1.2821 -4.29902,-2.2878 -4.32417,-1.433 -6.23484,-2.3129 -1.88554,-0.905 -3.19284,-2.1118 -1.30731,-1.2067 -2.08666,-2.9163 -0.77936,-1.7347 -0.77936,-4.2487 0,-4.4499 3.01686,-6.7628 3.042,-2.3381 8.87459,-2.3381 4.2236,0 9.35226,1.0811 v 8.0198 h -2.23751 l -1.13132,-4.6259 q -2.56433,-1.8604 -5.98343,-1.8604 -3.09228,0 -4.75155,1.1565 -1.65927,1.1313 -1.65927,3.4945 0,1.6844 1.38272,2.8912 1.38273,1.1816 4.32417,2.1118 5.75717,1.8855 7.89411,3.2934 2.16208,1.3827 3.2934,3.4442 1.13132,2.0615 1.13132,4.8521 0,10.735 -12.64566,10.735 -2.89116,0 -5.90801,-0.5028 -2.99172,-0.4777 -5.1538,-1.2822 z"
         id="path8493" />
    </g>
    <path
       id="rect3932"
       style="opacity:1;fill:none;stroke:#00eef8;stroke-width:1.1;stroke-linecap:round;stroke-linejoin:round"
       d="m -510.78406,1725.302 h 183.79289 v 63.5484 h -183.79289 z" />
    <g
       aria-label="VITE"
       transform="scale(1.0053928,0.99463613)"
       id="text3936"
       style="font-weight:bold;font-size:51.4877px;font-family:'Liberation Serif';-inkscape-font-specification:'Liberation Serif, Bold';text-align:center;text-anchor:middle;opacity:1;fill:#00eef8;stroke-width:1.1;stroke-linecap:round;stroke-linejoin:round">
      <path
         d="m -442.34689,1749.6951 v 1.8352 l -3.19284,0.6788 -13.02277,31.9787 h -3.34368 l -13.70156,-31.9787 -2.76545,-0.6788 v -1.8352 h 14.6569 v 1.8352 l -3.49453,0.6788 9.47796,22.0985 8.84945,-22.0985 -3.39397,-0.6788 v -1.8352 z"
         id="path8497" />
      <path
         d="m -427.79055,1780.8944 4.32416,0.6537 v 1.8603 h -16.56757 v -1.8603 l 4.32416,-0.6537 v -28.6853 l -4.32416,-0.6788 v -1.8352 h 16.56757 v 1.8352 l -4.32416,0.6788 z"
         id="path8499" />
      <path
         d="m -413.93814,1783.4084 v -1.8352 l 5.35492,-0.6788 V 1752.36 h -1.28216 q -5.75717,0 -8.09524,0.5028 l -0.67879,6.2599 h -2.28778 v -9.4276 h 32.75804 v 9.4276 h -2.31292 l -0.6788,-6.2599 q -2.08666,-0.4526 -8.24607,-0.4526 h -1.23189 v 28.4842 l 5.35492,0.6788 v 1.8352 z"
         id="path8501" />
      <path
         d="m -386.50988,1781.5732 4.32417,-0.6788 v -28.7104 l -4.32417,-0.6537 v -1.8352 h 28.71043 v 8.5729 h -2.28778 l -0.8045,-5.4555 q -2.81573,-0.352 -8.14551,-0.352 h -5.22922 v 12.3691 h 8.8243 l 0.77936,-3.7208 h 2.2375 v 10.3579 h -2.2375 l -0.77936,-3.8213 h -8.8243 v 12.9976 h 6.36054 q 6.48624,0 8.49748,-0.4023 l 1.43301,-6.2348 h 2.28778 l -0.47767,9.4025 h -30.34456 z"
         id="path8503" />
    </g>
    <path
       id="rect5015"
       style="opacity:1;fill:none;stroke:#00eef8;stroke-width:1.1;stroke-linecap:round;stroke-linejoin:round"
       d="m 162.66286,2156.9583 h 197.09182 v 63.5483 H 162.66286 Z" />
    <g
       aria-label="AXIOS"
       transform="scale(1.0053928,0.99463613)"
       id="text5019"
       style="font-weight:bold;font-size:51.4877px;font-family:'Liberation Serif';-inkscape-font-specification:'Liberation Serif, Bold';text-align:center;text-anchor:middle;opacity:1;fill:#00eef8;stroke-width:1.1;stroke-linecap:round;stroke-linejoin:round">
      <path
         d="m 189.6658,2215.5573 v 1.8353 h -10.25731 v -1.8353 l 2.51405,-0.6788 11.992,-31.4758 h 7.29074 l 11.94173,31.4758 2.56433,0.6788 v 1.8353 h -15.00887 v -1.8353 l 3.89678,-0.6788 -3.21798,-8.7237 h -12.94735 l -3.09228,8.7237 z m 5.35492,-27.0763 -5.55604,14.9083 h 10.96125 z"
         id="path8507" />
      <path
         d="m 224.38481,2214.8785 4.17332,0.6788 v 1.8353 h -11.51434 v -1.8353 l 3.72079,-0.6788 10.83554,-13.777 -9.65394,-14.9334 -3.79621,-0.6536 v -1.8353 h 16.41673 v 1.8353 l -4.27388,0.6536 5.88287,9.1009 7.16504,-9.1009 -4.17332,-0.6536 v -1.8353 h 11.53948 v 1.8353 l -3.72079,0.6536 -9.17628,11.64 11.03667,17.0704 3.82135,0.6788 v 1.8353 h -16.41673 v -1.8353 l 4.27388,-0.6788 -7.29074,-11.2378 z"
         id="path8509" />
      <path
         d="m 267.24932,2214.8785 4.32417,0.6537 v 1.8604 h -16.56758 v -1.8604 l 4.32416,-0.6537 v -28.6853 l -4.32416,-0.6787 v -1.8353 h 16.56758 v 1.8353 l -4.32417,0.6787 z"
         id="path8511" />
      <path
         d="m 284.16887,2200.4982 q 0,8.0198 2.18722,11.464 2.21236,3.4191 6.98905,3.4191 4.75155,0 6.93878,-3.4442 2.21236,-3.4443 2.21236,-11.4389 0,-7.9696 -2.21236,-11.3132 -2.18723,-3.3437 -6.93878,-3.3437 -4.77669,0 -6.98905,3.3437 -2.18722,3.3436 -2.18722,11.3132 z m -8.34664,0 q 0,-17.1961 17.52291,-17.1961 8.64833,0 13.07305,4.3744 4.42473,4.3493 4.42473,12.8217 0,8.5729 -4.47501,12.9976 -4.475,4.3996 -13.02277,4.3996 -8.52262,0 -13.02276,-4.3996 -4.50015,-4.3996 -4.50015,-12.9976 z"
         id="path8513" />
      <path
         d="m 316.09727,2207.0598 h 2.21236 l 1.13132,5.4052 q 1.0559,1.2319 3.19284,2.0616 2.13694,0.8296 4.42473,0.8296 7.21532,0 7.21532,-5.9332 0,-1.8603 -1.38273,-3.1425 -1.35759,-1.2822 -4.29902,-2.2878 -4.32417,-1.433 -6.23484,-2.3129 -1.88554,-0.9051 -3.19284,-2.1118 -1.30731,-1.2068 -2.08666,-2.9163 -0.77936,-1.7347 -0.77936,-4.2488 0,-4.4498 3.01686,-6.7627 3.042,-2.3381 8.87459,-2.3381 4.2236,0 9.35226,1.081 v 8.0198 h -2.23751 l -1.13132,-4.6258 q -2.56433,-1.8604 -5.98343,-1.8604 -3.09228,0 -4.75155,1.1565 -1.65927,1.1313 -1.65927,3.4945 0,1.6844 1.38272,2.8911 1.38273,1.1816 4.32417,2.1118 5.75717,1.8856 7.89411,3.2934 2.16208,1.3828 3.2934,3.4443 1.13132,2.0615 1.13132,4.8521 0,10.735 -12.64566,10.735 -2.89116,0 -5.90801,-0.5028 -2.99172,-0.4777 -5.1538,-1.2822 z"
         id="path8515" />
    </g>
    <path
       id="rect5021"
       style="opacity:1;fill:none;stroke:#00eef8;stroke-width:1.1;stroke-linecap:round;stroke-linejoin:round"
       d="m 539.58716,1705.506 h 237.19398 v 63.5484 H 539.58716 Z" />
    <g
       aria-label="NODE JS"
       transform="scale(1.0053928,0.99463613)"
       id="text5025"
       style="font-weight:bold;font-size:51.4877px;font-family:'Liberation Serif';-inkscape-font-specification:'Liberation Serif, Bold';text-align:center;text-anchor:middle;opacity:1;fill:#00eef8;stroke-width:1.1;stroke-linecap:round;stroke-linejoin:round">
      <path
         d="m 576.32874,1732.2811 -4.52529,-0.6536 v -1.8353 h 11.99201 v 1.8353 l -4.32416,0.6536 v 31.2245 h -2.94144 l -20.79117,-27.1014 v 24.5874 l 4.52528,0.6788 v 1.8352 h -11.99201 v -1.8352 l 4.32417,-0.6788 v -28.7105 l -4.32417,-0.6536 v -1.8353 h 11.53948 l 16.5173,21.5454 z"
         id="path8519" />
      <path
         d="m 595.33494,1746.6112 q 0,8.0198 2.18722,11.4641 2.21236,3.4191 6.98906,3.4191 4.75155,0 6.93877,-3.4443 2.21236,-3.4442 2.21236,-11.4389 0,-7.9695 -2.21236,-11.3132 -2.18722,-3.3437 -6.93877,-3.3437 -4.7767,0 -6.98906,3.3437 -2.18722,3.3437 -2.18722,11.3132 z m -8.34664,0 q 0,-17.1961 17.52292,-17.1961 8.64832,0 13.07305,4.3745 4.42472,4.3493 4.42472,12.8216 0,8.5729 -4.47501,12.9976 -4.475,4.3996 -13.02276,4.3996 -8.52263,0 -13.02277,-4.3996 -4.50015,-4.3995 -4.50015,-12.9976 z"
         id="path8521" />
      <path
         d="m 650.84512,1746.6615 q 0,-7.2907 -2.66489,-10.6847 -2.66489,-3.4191 -8.67347,-3.4191 h -1.86039 v 28.0819 q 2.41348,0.2011 4.37444,0.2011 3.26826,0 5.1538,-1.4078 1.91067,-1.4079 2.79059,-4.3996 0.87992,-3.0169 0.87992,-8.3718 z m -9.40254,-16.8693 q 9.07571,0 13.39987,4.1231 4.34931,4.0979 4.34931,12.5451 0,8.6734 -4.14818,12.9222 -4.14818,4.2236 -12.5451,4.2236 l -11.28808,-0.1006 h -5.78231 v -1.8352 l 4.32417,-0.6788 v -28.7105 l -4.32417,-0.6536 v -1.8353 z"
         id="path8523" />
      <path
         d="m 662.58572,1761.6704 4.32417,-0.6788 v -28.7105 l -4.32417,-0.6536 v -1.8353 h 28.71043 v 8.5729 h -2.28778 l -0.8045,-5.4554 q -2.81573,-0.352 -8.14551,-0.352 h -5.22922 v 12.3691 h 8.8243 l 0.77936,-3.7208 h 2.2375 v 10.3579 h -2.2375 l -0.77936,-3.8214 h -8.8243 v 12.9977 h 6.36054 q 6.48624,0 8.49748,-0.4023 l 1.43301,-6.2348 h 2.28778 l -0.47767,9.4025 h -30.34456 z"
         id="path8525" />
      <path
         d="m 721.51501,1732.2811 -4.32416,-0.6536 v -1.8353 h 16.06476 v 1.8353 l -3.82135,0.6536 v 20.3638 q 0,5.4555 -3.01686,8.4221 -3.01686,2.9414 -8.59804,2.9414 -1.88554,0 -3.72079,-0.2262 -1.81012,-0.2012 -2.89116,-0.528 v -7.6427 h 2.2375 l 0.75422,4.5002 q 0.47767,0.5782 1.35758,0.905 0.87992,0.3268 1.93582,0.3268 1.73469,0 2.86602,-1.2067 1.15646,-1.2068 1.15646,-3.57 z"
         id="path8527" />
      <path
         d="m 737.40379,1753.1729 h 2.21236 l 1.13132,5.4052 q 1.0559,1.2319 3.19285,2.0615 2.13694,0.8296 4.42472,0.8296 7.21532,0 7.21532,-5.9331 0,-1.8604 -1.38273,-3.1426 -1.35759,-1.2821 -4.29902,-2.2878 -4.32416,-1.433 -6.23484,-2.3129 -1.88554,-0.905 -3.19284,-2.1118 -1.30731,-1.2067 -2.08666,-2.9163 -0.77936,-1.7347 -0.77936,-4.2487 0,-4.4499 3.01686,-6.7628 3.042,-2.3381 8.87459,-2.3381 4.2236,0 9.35226,1.0811 v 8.0198 h -2.2375 l -1.13132,-4.6259 q -2.56433,-1.8604 -5.98344,-1.8604 -3.09228,0 -4.75155,1.1565 -1.65927,1.1313 -1.65927,3.4945 0,1.6844 1.38273,2.8912 1.38272,1.1816 4.32416,2.1118 5.75717,1.8855 7.89411,3.2934 2.16208,1.3827 3.2934,3.4442 1.13132,2.0615 1.13132,4.8521 0,10.735 -12.64566,10.735 -2.89115,0 -5.90801,-0.5028 -2.99172,-0.4777 -5.1538,-1.2821 z"
         id="path8529" />
    </g>
    <path
       id="rect5170"
       style="opacity:1;fill:none;stroke:#00eef8;stroke-width:1.1;stroke-linecap:round;stroke-linejoin:round"
       d="m -510.15512,1902.2101 h 174.08652 v 63.5484 h -174.08652 z" />
    <g
       aria-label="JSON"
       transform="scale(1.0053928,0.99463613)"
       id="text5174"
       style="font-weight:bold;font-size:51.4877px;font-family:'Liberation Serif';-inkscape-font-specification:'Liberation Serif, Bold';text-align:center;text-anchor:middle;opacity:1;fill:#00eef8;stroke-width:1.1;stroke-linecap:round;stroke-linejoin:round">
      <path
         d="m -473.41097,1930.046 -4.32416,-0.6536 v -1.8353 h 16.06477 v 1.8353 l -3.82135,0.6536 v 20.3638 q 0,5.4555 -3.01686,8.4221 -3.01686,2.9414 -8.59805,2.9414 -1.88553,0 -3.72079,-0.2262 -1.81011,-0.2012 -2.89115,-0.528 v -7.6427 h 2.2375 l 0.75421,4.5001 q 0.47767,0.5783 1.35759,0.9051 0.87992,0.3268 1.93582,0.3268 1.73469,0 2.86601,-1.2067 1.15646,-1.2068 1.15646,-3.57 z"
         id="path8533" />
      <path
         d="m -457.52218,1950.9378 h 2.21236 l 1.13132,5.4052 q 1.0559,1.2319 3.19284,2.0615 2.13694,0.8296 4.42473,0.8296 7.21531,0 7.21531,-5.9331 0,-1.8604 -1.38272,-3.1426 -1.35759,-1.2821 -4.29902,-2.2878 -4.32417,-1.433 -6.23484,-2.3129 -1.88554,-0.905 -3.19284,-2.1118 -1.30731,-1.2067 -2.08666,-2.9163 -0.77936,-1.7347 -0.77936,-4.2487 0,-4.4499 3.01686,-6.7628 3.042,-2.3381 8.87459,-2.3381 4.2236,0 9.35226,1.0811 v 8.0198 h -2.23751 l -1.13132,-4.6259 q -2.56433,-1.8604 -5.98343,-1.8604 -3.09228,0 -4.75155,1.1565 -1.65927,1.1313 -1.65927,3.4945 0,1.6844 1.38272,2.8912 1.38273,1.1816 4.32416,2.1118 5.75717,1.8855 7.89411,3.2934 2.16209,1.3827 3.29341,3.4442 1.13132,2.0615 1.13132,4.8521 0,10.735 -12.64566,10.735 -2.89116,0 -5.90801,-0.5028 -2.99172,-0.4777 -5.1538,-1.2822 z"
         id="path8535" />
      <path
         d="m -420.7668,1944.3761 q 0,8.0198 2.18722,11.4641 2.21236,3.4191 6.98905,3.4191 4.75155,0 6.93878,-3.4443 2.21236,-3.4442 2.21236,-11.4389 0,-7.9695 -2.21236,-11.3132 -2.18723,-3.3437 -6.93878,-3.3437 -4.77669,0 -6.98905,3.3437 -2.18722,3.3437 -2.18722,11.3132 z m -8.34664,0 q 0,-17.1961 17.52291,-17.1961 8.64833,0 13.07305,4.3745 4.42473,4.3493 4.42473,12.8216 0,8.5729 -4.47501,12.9976 -4.475,4.3996 -13.02277,4.3996 -8.52262,0 -13.02277,-4.3996 -4.50014,-4.3996 -4.50014,-12.9976 z"
         id="path8537" />
      <path
         d="m -362.54145,1930.046 -4.52529,-0.6536 v -1.8353 h 11.99201 v 1.8353 l -4.32416,0.6536 v 31.2245 h -2.94144 l -20.79117,-27.1014 v 24.5874 l 4.52528,0.6788 v 1.8352 h -11.992 v -1.8352 l 4.32416,-0.6788 v -28.7105 l -4.32416,-0.6536 v -1.8353 h 11.53948 l 16.51729,21.5454 z"
         id="path8539" />
    </g>
    <path
       id="rect5176"
       style="opacity:1;fill:none;stroke:#00eef8;stroke-width:1.1;stroke-linecap:round;stroke-linejoin:round"
       d="m -333.11661,1597.0387 h 174.08652 v 63.5484 h -174.08652 z" />
    <g
       aria-label="REST"
       transform="scale(1.0053928,0.99463613)"
       id="text5180"
       style="font-weight:bold;font-size:51.4877px;font-family:'Liberation Serif';-inkscape-font-specification:'Liberation Serif, Bold';text-align:center;text-anchor:middle;opacity:1;fill:#00eef8;stroke-width:1.1;stroke-linecap:round;stroke-linejoin:round">
      <path
         d="m -298.21446,1640.1737 v 11.7657 l 4.32416,0.6788 v 1.8353 h -16.26589 v -1.8353 l 3.99734,-0.6788 v -28.7104 l -4.32417,-0.6536 v -1.8353 h 16.11505 q 7.44158,0 11.11209,2.2878 3.67051,2.2878 3.67051,7.1399 0,7.2404 -6.78793,9.302 l 9.00029,12.4696 3.64537,0.6788 v 1.8353 h -10.91096 l -9.40254,-14.2798 z m 10.78526,-9.9556 q 0,-3.7711 -1.55871,-5.2293 -1.55871,-1.4832 -5.70689,-1.4832 h -3.51966 v 13.9026 h 3.64537 q 3.87163,0 5.50576,-1.6089 1.63413,-1.609 1.63413,-5.5812 z"
         id="path8543" />
      <path
         d="m -273.30025,1652.6182 4.32416,-0.6788 v -28.7104 l -4.32416,-0.6536 v -1.8353 h 28.71043 v 8.5729 h -2.28778 l -0.8045,-5.4555 q -2.81573,-0.3519 -8.14551,-0.3519 h -5.22922 v 12.3691 h 8.8243 l 0.77936,-3.7208 h 2.2375 v 10.3579 h -2.2375 l -0.77936,-3.8214 h -8.8243 v 12.9976 h 6.36054 q 6.48624,0 8.49748,-0.4022 l 1.43301,-6.2348 h 2.28778 l -0.47767,9.4025 h -30.34456 z"
         id="path8545" />
      <path
         d="m -237.09796,1644.1208 h 2.21237 l 1.13132,5.4052 q 1.0559,1.2318 3.19284,2.0615 2.13694,0.8296 4.42472,0.8296 7.21532,0 7.21532,-5.9331 0,-1.8604 -1.38273,-3.1426 -1.35758,-1.2822 -4.29902,-2.2878 -4.32416,-1.433 -6.23484,-2.3129 -1.88553,-0.9051 -3.19284,-2.1118 -1.3073,-1.2068 -2.08666,-2.9163 -0.77935,-1.7347 -0.77935,-4.2487 0,-4.4499 3.01686,-6.7628 3.04199,-2.3381 8.87458,-2.3381 4.22361,0 9.35226,1.081 v 8.0199 h -2.2375 l -1.13132,-4.6259 q -2.56433,-1.8604 -5.98344,-1.8604 -3.09227,0 -4.75155,1.1565 -1.65927,1.1313 -1.65927,3.4945 0,1.6844 1.38273,2.8912 1.38273,1.1816 4.32416,2.1118 5.75717,1.8855 7.89411,3.2934 2.16208,1.3827 3.2934,3.4442 1.13133,2.0615 1.13133,4.8521 0,10.735 -12.64567,10.735 -2.89115,0 -5.90801,-0.5028 -2.99171,-0.4777 -5.1538,-1.2822 z"
         id="path8547" />
      <path
         d="m -203.40972,1654.4535 v -1.8353 l 5.35492,-0.6788 v -28.5344 h -1.28216 q -5.75717,0 -8.09523,0.5028 l -0.6788,6.26 h -2.28778 v -9.4277 h 32.75804 v 9.4277 h -2.31292 l -0.67879,-6.26 q -2.08666,-0.4525 -8.24608,-0.4525 h -1.23188 v 28.4841 l 5.35492,0.6788 v 1.8353 z"
         id="path8549" />
    </g>
    <path
       id="rect5182"
       style="opacity:1;fill:none;stroke:#00eef8;stroke-width:1.1;stroke-linecap:round;stroke-linejoin:round"
       d="m -307.6463,2227.8132 h 152.28018 v 63.5484 H -307.6463 Z" />
    <g
       aria-label="NPM"
       transform="scale(1.0053928,0.99463613)"
       id="text5186"
       style="font-weight:bold;font-size:51.4877px;font-family:'Liberation Serif';-inkscape-font-specification:'Liberation Serif, Bold';text-align:center;text-anchor:middle;opacity:1;fill:#00eef8;stroke-width:1.1;stroke-linecap:round;stroke-linejoin:round">
      <path
         d="m -259.20102,2257.4052 -4.52529,-0.6537 v -1.8352 h 11.99201 v 1.8352 l -4.32416,0.6537 v 31.2244 h -2.94144 l -20.79117,-27.1014 v 24.5874 l 4.52528,0.6788 v 1.8352 h -11.992 v -1.8352 l 4.32416,-0.6788 v -28.7104 l -4.32416,-0.6537 v -1.8352 h 11.53948 l 16.51729,21.5453 z"
         id="path8553" />
      <path
         d="m -229.15815,2264.897 q 0,-4.0225 -1.50842,-5.6063 -1.48329,-1.609 -5.25436,-1.609 h -1.9861 v 14.9586 h 2.08666 q 3.49452,0 5.07837,-1.7598 1.58385,-1.7599 1.58385,-5.9835 z m -8.74888,10.5087 v 10.7099 l 5.60632,0.6788 v 1.8352 h -17.54805 v -1.8352 l 3.99734,-0.6788 v -28.7104 l -4.32417,-0.6537 v -1.8352 h 14.85803 q 7.16503,0 10.70984,2.4134 3.54481,2.3884 3.54481,7.517 0,10.559 -12.31884,10.559 z"
         id="path8555" />
      <path
         d="m -197.43086,2288.6296 h -1.38273 l -12.44454,-28.4841 v 25.9701 l 4.52529,0.6788 v 1.8352 h -11.99201 v -1.8352 l 4.32416,-0.6788 v -28.7104 l -4.32416,-0.6537 v -1.8352 h 13.24903 l 9.62881,22.1739 9.82992,-22.1739 h 13.52558 v 1.8352 l -4.32416,0.6537 v 28.7104 l 4.32416,0.6788 v 1.8352 h -16.7687 v -1.8352 l 4.52529,-0.6788 v -25.9701 z"
         id="path8557" />
    </g>
    <path
       id="rect5188"
       style="opacity:1;fill:none;stroke:#00eef8;stroke-width:1.1;stroke-linecap:round;stroke-linejoin:round"
       d="m 368.56699,1584.9703 h 166.87278 v 63.5484 H 368.56699 Z" />
    <g
       aria-label="PNPM"
       transform="scale(1.0053928,0.99463613)"
       id="text5192"
       style="font-weight:bold;font-size:51.4877px;font-family:'Liberation Serif';-inkscape-font-specification:'Liberation Serif, Bold';text-align:center;text-anchor:middle;opacity:1;fill:#00eef8;stroke-width:1.1;stroke-linecap:round;stroke-linejoin:round">
      <path
         d="m 397.77708,1618.5875 q 0,-4.0225 -1.50843,-5.6064 -1.48328,-1.609 -5.25436,-1.609 h -1.98609 v 14.9586 h 2.08666 q 3.49452,0 5.07837,-1.7598 1.58385,-1.7598 1.58385,-5.9834 z m -8.74888,10.5087 v 10.7098 l 5.60632,0.6788 v 1.8353 h -17.54805 v -1.8353 l 3.99734,-0.6788 v -28.7104 l -4.32417,-0.6537 v -1.8352 h 14.85803 q 7.16503,0 10.70984,2.4135 3.54481,2.3883 3.54481,7.517 0,10.559 -12.31884,10.559 z"
         id="path8561" />
      <path
         d="m 436.36772,1611.0956 -4.52529,-0.6537 v -1.8352 h 11.99201 v 1.8352 l -4.32416,0.6537 v 31.2245 h -2.94144 l -20.79117,-27.1015 v 24.5874 l 4.52528,0.6788 v 1.8353 h -11.99201 v -1.8353 l 4.32417,-0.6788 v -28.7104 l -4.32417,-0.6537 v -1.8352 h 11.53948 l 16.5173,21.5454 z"
         id="path8563" />
      <path
         d="m 466.41059,1618.5875 q 0,-4.0225 -1.50843,-5.6064 -1.48329,-1.609 -5.25436,-1.609 h -1.9861 v 14.9586 h 2.08666 q 3.49453,0 5.07838,-1.7598 1.58385,-1.7598 1.58385,-5.9834 z m -8.74889,10.5087 v 10.7098 l 5.60633,0.6788 v 1.8353 h -17.54805 v -1.8353 l 3.99733,-0.6788 v -28.7104 l -4.32416,-0.6537 v -1.8352 h 14.85802 q 7.16504,0 10.70985,2.4135 3.5448,2.3883 3.5448,7.517 0,10.559 -12.31883,10.559 z"
         id="path8565" />
      <path
         d="m 498.13787,1642.3201 h -1.38272 l -12.44454,-28.4842 v 25.9701 l 4.52529,0.6788 v 1.8353 h -11.99201 v -1.8353 l 4.32416,-0.6788 v -28.7104 l -4.32416,-0.6537 v -1.8352 h 13.24903 l 9.6288,22.1739 9.82993,-22.1739 h 13.52558 v 1.8352 l -4.32416,0.6537 v 28.7104 l 4.32416,0.6788 v 1.8353 h -16.7687 v -1.8353 l 4.52528,-0.6788 v -25.9701 z"
         id="path8567" />
    </g>
    <path
       id="rect5614"
       style="opacity:1;fill:none;stroke:#00eef8;stroke-width:1.1;stroke-linecap:round;stroke-linejoin:round"
       d="m -165.09183,1508.2534 h 291.12665 v 63.5484 h -291.12665 z" />
    <g
       aria-label="FIREBASE"
       transform="scale(1.0053928,0.99463613)"
       id="text5618"
       style="font-weight:bold;font-size:51.4877px;font-family:'Liberation Serif';-inkscape-font-specification:'Liberation Serif, Bold';text-align:center;text-anchor:middle;opacity:1;fill:#00eef8;stroke-width:1.1;stroke-linecap:round;stroke-linejoin:round">
      <path
         d="m -134.41616,1550.8091 v 11.8663 l 5.60633,0.6788 v 1.8353 h -17.52292 v -1.8353 l 3.99734,-0.6788 v -28.7104 l -4.32416,-0.6537 v -1.8352 h 28.10705 v 9.0757 h -2.3632 l -0.8045,-5.9583 q -1.23188,-0.176 -4.07275,-0.2514 -2.84088,-0.1006 -4.47501,-0.1006 h -4.14818 v 13.8021 h 8.22094 l 0.77935,-4.2738 h 2.23751 v 11.3635 h -2.23751 l -0.77935,-4.3242 z"
         id="path8571" />
      <path
         d="m -102.11064,1562.6754 4.324159,0.6537 v 1.8604 h -16.567579 v -1.8604 l 4.32417,-0.6537 v -28.6853 l -4.32417,-0.6788 v -1.8352 h 16.567579 v 1.8352 l -4.324159,0.6788 z"
         id="path8573" />
      <path
         d="m -82.903316,1550.9097 v 11.7657 l 4.324162,0.6788 v 1.8353 h -16.26589 v -1.8353 l 3.997336,-0.6788 v -28.7104 l -4.324162,-0.6537 v -1.8352 h 16.115047 q 7.441582,0 11.112092,2.2878 3.67051,2.2877 3.67051,7.1399 0,7.2404 -6.78793,9.3019 l 9.000292,12.4697 3.645369,0.6788 v 1.8353 h -10.910968 l -9.402539,-14.2798 z m 10.785265,-9.9557 q 0,-3.771 -1.558709,-5.2292 -1.55871,-1.4833 -5.706889,-1.4833 h -3.519667 v 13.9027 h 3.645369 q 3.871634,0 5.505765,-1.609 1.634131,-1.609 1.634131,-5.5812 z"
         id="path8575" />
      <path
         d="m -57.9891,1563.3542 4.324162,-0.6788 v -28.7104 l -4.324162,-0.6537 v -1.8352 h 28.710427 v 8.5729 h -2.287784 l -0.804495,-5.4555 q -2.815734,-0.352 -8.145515,-0.352 h -5.22922 v 12.3691 h 8.824308 l 0.779355,-3.7208 h 2.237503 v 10.3579 h -2.237503 l -0.779355,-3.8213 h -8.824308 v 12.9976 h 6.360541 q 6.486244,0 8.497482,-0.4022 l 1.433007,-6.2349 h 2.287784 l -0.477669,9.4026 H -57.9891 Z"
         id="path8577" />
      <path
         d="m -2.4537804,1539.7976 q 0,-2.9415 -1.2821644,-4.2488 -1.257024,-1.3073 -4.1733196,-1.3073 h -3.4945266 v 11.7406 h 3.6956505 q 2.6900312,0 3.9721957,-1.4078 1.2821644,-1.4079 1.2821644,-4.7767 z m 2.53918842,15.5619 q 0,-3.3437 -1.68441212,-4.9778 -1.6592716,-1.6341 -5.455484,-1.6341 h -4.3493029 v 13.6764 q 3.620229,0.1508 5.7068888,0.1508 2.9414361,0 4.3493029,-1.7849 1.43300732,-1.785 1.43300732,-5.4304 z m -23.75775302,9.83 v -1.8353 l 4.349303,-0.6788 v -28.7104 l -4.349303,-0.6537 v -1.8352 h 16.3664521 q 6.71250799,0 9.9053488,1.8101 3.1928409,1.785 3.1928409,5.8074 0,3.0169 -1.8855359,5.2041 -1.885536,2.1872 -5.0532364,2.866 4.7012697,0.4777 7.1147557,2.5644 2.413486,2.0615 2.413486,5.6314 0,4.9024 -3.620229,7.4416 -3.620229,2.5392 -10.383018,2.5392 l -11.4640582,-0.1508 z"
         id="path8579" />
      <path
         d="m 20.5749,1563.3542 v 1.8353 H 10.317585 v -1.8353 l 2.514047,-0.6788 11.992009,-31.4759 h 7.290739 l 11.941728,31.4759 2.564328,0.6788 v 1.8353 H 31.61157 v -1.8353 l 3.896775,-0.6788 -3.217982,-8.7237 H 19.343017 l -3.092279,8.7237 z m 5.354922,-27.0763 -5.556046,14.9083 h 10.961249 z"
         id="path8581" />
      <path
         d="m 49.737857,1554.8567 h 2.212362 l 1.131322,5.4052 q 1.0559,1.2319 3.192841,2.0615 2.13694,0.8297 4.424724,0.8297 7.215317,0 7.215317,-5.9332 0,-1.8604 -1.382726,-3.1425 -1.357586,-1.2822 -4.299022,-2.2878 -4.324162,-1.433 -6.234839,-2.3129 -1.885536,-0.9051 -3.192841,-2.1118 -1.307305,-1.2068 -2.086659,-2.9163 -0.779355,-1.7347 -0.779355,-4.2488 0,-4.4498 3.016857,-6.7628 3.041998,-2.338 8.874589,-2.338 4.223601,0 9.352259,1.081 v 8.0198 h -2.237503 l -1.131322,-4.6258 q -2.564328,-1.8604 -5.983434,-1.8604 -3.092278,0 -4.75155,1.1564 -1.659272,1.1314 -1.659272,3.4946 0,1.6844 1.382727,2.8911 1.382726,1.1816 4.324162,2.1118 5.75717,1.8856 7.89411,3.2934 2.162082,1.3827 3.293403,3.4443 1.131322,2.0615 1.131322,4.8521 0,10.735 -12.645661,10.735 -2.891155,0 -5.908013,-0.5028 -2.991717,-0.4777 -5.153798,-1.2822 z"
         id="path8583" />
      <path
         d="m 76.512471,1563.3542 4.324163,-0.6788 v -28.7104 l -4.324163,-0.6537 v -1.8352 H 105.2229 v 8.5729 h -2.28779 l -0.80449,-5.4555 q -2.815734,-0.352 -8.145516,-0.352 h -5.229219 v 12.3691 h 8.824308 l 0.779355,-3.7208 h 2.237502 v 10.3579 h -2.237502 l -0.779355,-3.8213 h -8.824308 v 12.9976 h 6.360541 q 6.486244,0 8.497484,-0.4022 l 1.43301,-6.2349 h 2.28778 l -0.47767,9.4026 H 76.512471 Z"
         id="path8585" />
    </g>
    <path
       style="fill:none;fill-rule:evenodd;stroke:#00eff8;stroke-width:1px;stroke-linecap:butt;stroke-linejoin:miter;stroke-opacity:1"
       d="m 185.02971,1662.0569 -31.24311,57.2218"
       id="path5781" />
    <path
       style="fill:none;fill-rule:evenodd;stroke:#00eff8;stroke-width:1px;stroke-linecap:butt;stroke-linejoin:miter;stroke-opacity:1"
       d="m -143.49025,1719.2787 -66.55298,-58.6916"
       id="path5783" />
    <path
       style="fill:none;fill-rule:evenodd;stroke:#00eff8;stroke-width:1px;stroke-linecap:butt;stroke-linejoin:miter;stroke-opacity:1"
       d="m -256.52733,1804.5368 -70.46384,-20.5977"
       id="path5787" />
    <path
       style="fill:none;fill-rule:evenodd;stroke:#00eff8;stroke-width:1px;stroke-linecap:butt;stroke-linejoin:miter;stroke-opacity:1"
       d="m -256.52733,1920.8911 -79.54127,6.2518"
       id="path5789" />
    <path
       style="fill:none;fill-rule:evenodd;stroke:#00eff8;stroke-width:1px;stroke-linecap:butt;stroke-linejoin:miter;stroke-opacity:1"
       d="m -224.14652,2073.1918 -93.09624,58.5606"
       id="path5791" />
    <path
       style="fill:none;fill-rule:evenodd;stroke:#00eff8;stroke-width:1px;stroke-linecap:butt;stroke-linejoin:miter;stroke-opacity:1"
       d="m 85.607984,2073.1918 28.939456,180.0663"
       id="path5793" />
    <path
       style="fill:none;fill-rule:evenodd;stroke:#00eff8;stroke-width:1px;stroke-linecap:butt;stroke-linejoin:miter;stroke-opacity:1"
       d="M -83.419359,2073.1918 -206.26238,2227.8132"
       id="path5795" />
    <path
       style="fill:none;fill-rule:evenodd;stroke:#00eff8;stroke-width:1px;stroke-linecap:butt;stroke-linejoin:miter;stroke-opacity:1"
       d="m 272.04365,2073.1918 224.35114,184.7601"
       id="path5797" />
    <path
       style="fill:none;fill-rule:evenodd;stroke:#00eff8;stroke-width:1px;stroke-linecap:butt;stroke-linejoin:miter;stroke-opacity:1"
       d="m 307.15384,1719.2787 99.96231,-70.76"
       id="path5799" />
    <path
       style="fill:none;fill-rule:evenodd;stroke:#00eff8;stroke-width:1px;stroke-linecap:butt;stroke-linejoin:miter;stroke-opacity:1"
       d="m 370.86397,1813.2699 168.72319,-44.6235"
       id="path5801" />
    <path
       style="fill:none;fill-rule:evenodd;stroke:#00eff8;stroke-width:1px;stroke-linecap:butt;stroke-linejoin:miter;stroke-opacity:1"
       d="m 180.6098,2073.1918 58.4339,83.7665"
       id="path5803" />
    <path
       style="fill:none;fill-rule:evenodd;stroke:#00eff8;stroke-width:1px;stroke-linecap:butt;stroke-linejoin:miter;stroke-opacity:1"
       d="m 370.86397,1933.4275 30.24934,3.5864"
       id="path5805" />
    <path
       style="fill:none;fill-rule:evenodd;stroke:#00eff8;stroke-width:1px;stroke-linecap:butt;stroke-linejoin:miter;stroke-opacity:1"
       d="m -12.687046,1571.8018 31.753987,147.4769"
       id="path5815" />
    <g
       id="g5832"
       transform="translate(487.37416,2484.2835)">
      <path
         d="m -110.51449,-796.1062 h -260.1696 v -5.36232 h -117.971 v 5.36232 h -261.24208 a 17.5985,17.5985 0 0 0 -17.59852,17.59851 v 356.25219 a 17.59856,17.59856 0 0 0 17.59852,17.59858 h 639.38268 a 17.59856,17.59856 0 0 0 17.598521,-17.59858 v -356.25219 a 17.5985,17.5985 0 0 0 -17.598521,-17.59851 z"
         fill="#3f3d56"
         id="path3946" />
      <path
         id="rect3948"
         style="fill:#00eef8"
         d="m -743.90149,-765.00476 h 627.3913 v 353.91302 h -627.3913 z" />
      <path
         id="circle3950"
         style="fill:#00eef8"
         d="m -424.30729,-781.09167 a 6.4347801,6.4347801 0 0 1 -6.43478,6.43478 6.4347801,6.4347801 0 0 1 -6.43478,-6.43478 6.4347801,6.4347801 0 0 1 6.43478,-6.43478 6.4347801,6.4347801 0 0 1 6.43478,6.43478 z" />
      <path
         id="polygon3952"
         transform="translate(-794.30728,-814.75837)"
         style="opacity:0.1"
         d="M 50.406,403.667 V 49.754 l 447.968,353.913 z" />
      <path
         id="circle3954"
         style="fill:#f2f2f2"
         d="m -585.42672,-497.88196 a 60.306801,60.306801 0 0 1 -60.3068,60.3068 60.306801,60.306801 0 0 1 -60.3068,-60.3068 60.306801,60.306801 0 0 1 60.3068,-60.3068 60.306801,60.306801 0 0 1 60.3068,60.3068 z" />
      <path
         id="rect3956"
         style="fill:#3f3d56"
         d="m -284.35455,-574.1366 h 58.6052 v 12.24586 h -58.6052 z" />
      <path
         id="rect3958"
         style="fill:#3f3d56"
         d="m -355.20563,-669.47943 h 200.30733 v 5.24823 h -200.30733 z" />
      <path
         id="rect3960"
         style="fill:#3f3d56"
         d="m -355.20563,-652.86005 h 200.30733 v 5.24823 h -200.30733 z" />
      <path
         id="rect3962"
         style="fill:#3f3d56"
         d="m -355.20563,-636.24066 h 200.30733 v 5.24823 h -200.30733 z" />
      <path
         id="rect3964"
         style="fill:#3f3d56"
         d="m -355.20563,-619.62128 h 200.30733 v 5.24823 h -200.30733 z" />
      <path
         id="rect3966"
         style="fill:#3f3d56"
         d="m -355.20563,-603.00189 h 200.30733 v 5.24823 h -200.30733 z" />
      <path
         id="rect3968"
         style="fill:#f2f2f2"
         d="m -179.39005,-757.82458 h 24.49173 v 24.49172 h -24.49173 z" />
      <path
         d="m -143.52714,-721.96168 h -29.74 v -29.74 h 29.74 z m -28.44691,-1.293 h 27.15387 v -27.15391 h -27.15387 z"
         fill="#3f3d56"
         id="path3970" />
      <path
         d="M -75.300189,-417.52651 H -136.5295 v -4.41153 a 0.87468,0.87468 0 0 0 -0.87471,-0.87471 h -20.9929 a 0.87468,0.87468 0 0 0 -0.87471,0.87471 v 4.41153 h -13.12057 v -4.41153 a 0.87467,0.87467 0 0 0 -0.8747,-0.87471 H -194.26 a 0.87468,0.87468 0 0 0 -0.8747,0.87471 v 4.41153 h -13.12057 v -4.41153 a 0.87468,0.87468 0 0 0 -0.8747,-0.87471 h -20.99287 a 0.87468,0.87468 0 0 0 -0.87471,0.87471 v 4.41153 h -13.1206 v -4.41153 a 0.87468,0.87468 0 0 0 -0.87471,-0.87471 h -20.99291 a 0.87468,0.87468 0 0 0 -0.8747,0.87471 v 4.41153 h -13.12057 v -4.41153 a 0.87468,0.87468 0 0 0 -0.8747,-0.87471 h -20.99291 a 0.87467,0.87467 0 0 0 -0.8747,0.87471 v 4.41153 h -13.12057 v -4.41153 a 0.87468,0.87468 0 0 0 -0.87471,-0.87471 h -20.9929 a 0.87468,0.87468 0 0 0 -0.87471,0.87471 v 4.41153 h -13.1206 v -4.41153 a 0.87468,0.87468 0 0 0 -0.8747,-0.87471 h -164.44442 a 0.87468,0.87468 0 0 0 -0.8747,0.87471 v 4.41153 h -13.12057 v -4.41153 a 0.87468,0.87468 0 0 0 -0.8747,-0.87471 h -20.99291 a 0.87467,0.87467 0 0 0 -0.8747,0.87471 v 4.41153 h -13.12057 v -4.41153 a 0.87468,0.87468 0 0 0 -0.87471,-0.87471 h -20.9929 a 0.87468,0.87468 0 0 0 -0.87471,0.87471 v 4.41153 H -602.747 v -4.41153 a 0.87467,0.87467 0 0 0 -0.8747,-0.87471 h -20.99291 a 0.87468,0.87468 0 0 0 -0.8747,0.87471 v 4.41153 h -13.12053 v -4.41153 a 0.87468,0.87468 0 0 0 -0.8747,-0.87471 h -20.99295 a 0.87468,0.87468 0 0 0 -0.87471,0.87471 v 4.41153 h -13.12056 v -4.41153 a 0.87468,0.87468 0 0 0 -0.87471,-0.87471 h -20.99291 a 0.87468,0.87468 0 0 0 -0.8747,0.87471 v 4.41153 h -13.12057 v -4.41153 a 0.87468,0.87468 0 0 0 -0.8747,-0.87471 h -20.99291 a 0.87467,0.87467 0 0 0 -0.8747,0.87471 v 4.41153 h -40.23641 a 20.99293,20.99293 0 0 0 -20.99291,20.99291 v 9.4925 a 20.99291,20.99291 0 0 0 20.99291,20.99285 h 698.014181 a 20.9929,20.9929 0 0 0 20.99291,-20.99285 v -9.4925 a 20.99292,20.99292 0 0 0 -20.99291,-20.99291 z"
         fill="#3f3d56"
         id="path3972" />
      <path
         d="m -631.13591,-460.21513 a 76,76 0 1 1 76,-76 76.08614,76.08614 0 0 1 -76,76 z m 0,-150 a 74,74 0 1 0 74,74 74.08385,74.08385 0 0 0 -74,-74 z"
         fill="#3f3d56"
         id="path3974" />
    </g>
    <g
       id="g5848"
       transform="translate(487.37416,2484.2835)">
      <path
         id="rect3990"
         style="fill:#00eef8"
         d="m 283.69272,-264.75836 h 28 v 28 h -28 z" />
      <path
         d="m 262.86409,-582.80015 h -2.37862 v -65.1616 a 37.71374,37.71374 0 0 0 -37.71385,-37.71377 H 84.718161 a 37.71373,37.71373 0 0 0 -37.71387,37.71377 v 357.48139 a 37.71374,37.71374 0 0 0 37.71387,37.71378 H 222.77164 a 37.71374,37.71374 0 0 0 37.71385,-37.71378 v -245.9367 h 2.37862 z"
         fill="#3f3d56"
         id="path3994" />
      <path
         d="m 252.45416,-645.74516 v 356.96 a 28.16523,28.16523 0 0 1 -28.16016,28.17 H 85.574161 a 28.16511,28.16511 0 0 1 -28.16,-28.17 v -356.96 a 28.163,28.163 0 0 1 28.16,-28.16 h 16.829999 a 13.3792,13.3792 0 0 0 12.39,18.43 h 79.09 a 13.37908,13.37908 0 0 0 12.38995,-18.43 h 18.02 a 28.16308,28.16308 0 0 1 28.16005,28.16 z"
         fill="#00eef8"
         id="path3996"
         style="fill:#00eef8;fill-opacity:1" />
      <path
         id="rect3998"
         style="fill:#3f3d56"
         d="m 134.27237,-438.54068 h 41.32357 v 12.24586 h -41.32357 z" />
      <path
         id="rect4000"
         style="fill:#3f3d56"
         d="M 84.314056,-533.88348 H 225.55434 v 5.24823 H 84.314056 Z" />
      <path
         id="rect4002"
         style="fill:#3f3d56"
         d="M 84.314056,-517.2641 H 225.55434 v 5.24823 H 84.314056 Z" />
      <path
         id="rect4004"
         style="fill:#3f3d56"
         d="M 84.314056,-500.64468 H 225.55434 v 5.24823 H 84.314056 Z" />
      <path
         id="rect4006"
         style="fill:#3f3d56"
         d="M 84.314056,-484.0253 H 225.55434 v 5.24823 H 84.314056 Z" />
      <path
         id="rect4008"
         style="fill:#3f3d56"
         d="M 84.314056,-467.40591 H 225.55434 v 5.24823 H 84.314056 Z" />
      <path
         id="rect4010"
         style="fill:#f2f2f2"
         d="m 135.37625,-603.57965 h 24.49173 v 24.49173 h -24.49173 z" />
      <path
         d="m 144.75202,-597.45512 v 29.74 h 29.74 v -29.74 z m 28.45,28.45 h -27.16 v -27.16 h 27.16 z"
         fill="#3f3d56"
         id="path4012" />
      <path
         d="m 252.45416,-326.90513 v 38.12 a 28.16523,28.16523 0 0 1 -28.16016,28.17 H 85.574161 a 28.16511,28.16511 0 0 1 -28.16,-28.17 v -192.21 l 116.869999,92.33 2,1.58 21.74,17.17 2.03,1.61 z"
         opacity="0.1"
         id="path4014" />
      <path
         id="circle4016"
         style="fill:#f2f2f2"
         d="m 186.802,-316.05145 a 43.867828,43.867828 0 0 1 -43.86783,43.86783 43.867828,43.867828 0 0 1 -43.867825,-43.86783 43.867828,43.867828 0 0 1 43.867825,-43.86783 43.867828,43.867828 0 0 1 43.86783,43.86783 z" />
      <path
         d="m 155.86409,-282.21513 a 55,55 0 1 1 55,-55 55.06223,55.06223 0 0 1 -55,55 z m 0,-108 a 53,53 0 1 0 53,53 53.05963,53.05963 0 0 0 -53,-53 z"
         fill="#3f3d56"
         id="path4020" />
    </g>
  </g>
</svg>
